<svg width="256" height="256" viewBox="0 0 256 256" fill="none" xmlns="http://www.w3.org/2000/svg">
  <defs>
    <linearGradient id="bg1" x1="24" y1="20" x2="230" y2="240" gradientUnits="userSpaceOnUse">
      <stop stop-color="#F2F7FE"/>
      <stop offset="1" stop-color="#DDEAFB"/>
    </linearGradient>
    <linearGradient id="shirt1" x1="70" y1="164" x2="190" y2="236" gradientUnits="userSpaceOnUse">
      <stop stop-color="#2A8BA8"/>
      <stop offset="1" stop-color="#206D85"/>
    </linearGradient>
  </defs>
  <rect x="8" y="8" width="240" height="240" rx="120" fill="url(#bg1)"/>
  <circle cx="128" cy="97" r="44" fill="#F2C8A3"/>
  <path d="M79 97C79 67 98 44 128 44C158 44 177 67 177 97V101H79V97Z" fill="#2F3C4D"/>
  <path d="M80 176C91 153 107 143 128 143C149 143 165 153 176 176V210H80V176Z" fill="url(#shirt1)"/>
  <circle cx="112" cy="98" r="4" fill="#2F3C4D"/>
  <circle cx="144" cy="98" r="4" fill="#2F3C4D"/>
  <path d="M112 119C118 127 138 127 144 119" stroke="#CF8D68" stroke-width="4" stroke-linecap="round"/>
  <rect x="8" y="8" width="240" height="240" rx="120" stroke="#C9DCEC" stroke-width="4"/>
</svg>
